<svg width="851" height="854" xmlns="http://www.w3.org/2000/svg" xmlns:xlink="http://www.w3.org/1999/xlink" xml:space="preserve" overflow="hidden"><defs><clipPath id="clip0"><rect x="1030" y="539" width="851" height="854"/></clipPath><clipPath id="clip1"><rect x="1051" y="539" width="661" height="414"/></clipPath><clipPath id="clip2"><rect x="1051" y="539" width="661" height="414"/></clipPath><clipPath id="clip3"><rect x="1051" y="539" width="661" height="414"/></clipPath><clipPath id="clip4"><path d="M1869.1 824.935 1532.56 1392.69 1176.53 1181.65 1513.07 613.897Z" fill-rule="evenodd" clip-rule="evenodd"/></clipPath><clipPath id="clip5"><path d="M1869.1 824.935 1532.56 1392.69 1176.53 1181.65 1513.07 613.897Z" fill-rule="evenodd" clip-rule="evenodd"/></clipPath><clipPath id="clip6"><path d="M1869.1 824.935 1532.56 1392.69 1176.53 1181.65 1513.07 613.897Z" fill-rule="evenodd" clip-rule="evenodd"/></clipPath><clipPath id="clip7"><path d="M1806.97 916.715 1223.14 1224.52 1030.12 858.41 1613.95 550.606Z" fill-rule="evenodd" clip-rule="evenodd"/></clipPath><clipPath id="clip8"><path d="M1806.97 916.715 1223.14 1224.52 1030.12 858.41 1613.95 550.606Z" fill-rule="evenodd" clip-rule="evenodd"/></clipPath><clipPath id="clip9"><path d="M1806.97 916.715 1223.14 1224.52 1030.12 858.41 1613.95 550.606Z" fill-rule="evenodd" clip-rule="evenodd"/></clipPath><clipPath id="clip10"><rect x="1467" y="708" width="414" height="661"/></clipPath><clipPath id="clip11"><rect x="1467" y="708" width="414" height="661"/></clipPath><clipPath id="clip12"><rect x="1467" y="708" width="414" height="661"/></clipPath></defs><g clip-path="url(#clip0)" transform="translate(-1030 -539)"><g clip-path="url(#clip1)"><g clip-path="url(#clip2)"><g clip-path="url(#clip3)"><path d="M30.4247 220.054 352.823 220.054 314.463 258.414C309.461 263.415 309.461 271.524 314.463 276.526 319.465 281.528 327.574 281.528 332.576 276.526L392.907 216.177C397.909 211.413 398.102 203.497 393.339 198.496 393.199 198.349 393.054 198.205 392.907 198.064L332.563 137.733C327.799 132.731 319.883 132.538 314.881 137.301 314.734 137.441 314.59 137.586 314.45 137.733 309.449 142.496 309.255 150.412 314.019 155.414 314.159 155.561 314.303 155.705 314.45 155.845L352.81 194.226 30.4247 194.226C23.2795 194.226 17.4872 200.018 17.4872 207.164 17.4872 214.309 23.2795 220.101 30.4247 220.101Z" fill="#DC143C" transform="matrix(-1.5942 1.95234e-16 -1.22465e-16 -1 1712 953)"/></g></g></g><g clip-path="url(#clip4)"><g clip-path="url(#clip5)"><g clip-path="url(#clip6)"><path d="M30.4155 219.987 352.716 219.987 314.368 258.336C309.368 263.336 309.368 271.443 314.368 276.443 319.368 281.443 327.475 281.443 332.475 276.443L392.789 216.112C397.789 211.35 397.982 203.436 393.22 198.436 393.08 198.289 392.936 198.145 392.789 198.005L332.462 137.691C327.7 132.691 319.787 132.498 314.786 137.26 314.639 137.4 314.495 137.544 314.355 137.691 309.355 142.453 309.162 150.367 313.924 155.367 314.064 155.514 314.208 155.658 314.355 155.798L352.703 194.168 30.4155 194.168C23.2725 194.168 17.4819 199.958 17.4819 207.101 17.4819 214.245 23.2725 220.035 30.4155 220.035Z" fill="#DC143C" transform="matrix(-0.813143 1.37179 -0.860229 -0.509908 1869.1 824.935)"/></g></g></g><g clip-path="url(#clip7)"><g clip-path="url(#clip8)"><g clip-path="url(#clip9)"><path d="M30.4155 219.988 352.716 219.988 314.368 258.336C309.368 263.336 309.368 271.443 314.368 276.443 319.368 281.443 327.475 281.443 332.475 276.443L392.789 216.112C397.789 211.35 397.982 203.436 393.22 198.436 393.08 198.289 392.936 198.145 392.789 198.005L332.462 137.691C327.7 132.691 319.787 132.498 314.786 137.26 314.639 137.4 314.495 137.544 314.355 137.691 309.355 142.453 309.162 150.367 313.924 155.367 314.064 155.514 314.208 155.658 314.355 155.798L352.703 194.168 30.4155 194.168C23.2725 194.168 17.4819 199.958 17.4819 207.101 17.4819 214.245 23.2725 220.035 30.4155 220.035Z" fill="#DC143C" transform="matrix(-1.41064 0.743713 -0.46637 -0.88459 1806.97 916.715)"/></g></g></g><g clip-path="url(#clip10)"><g clip-path="url(#clip11)"><g clip-path="url(#clip12)"><path d="M30.4247 220.054 352.823 220.054 314.463 258.414C309.461 263.415 309.461 271.524 314.463 276.526 319.465 281.528 327.574 281.528 332.576 276.526L392.907 216.177C397.909 211.413 398.102 203.497 393.339 198.496 393.199 198.349 393.054 198.205 392.907 198.064L332.563 137.733C327.799 132.731 319.883 132.538 314.881 137.301 314.734 137.441 314.59 137.586 314.45 137.733 309.449 142.496 309.255 150.412 314.019 155.414 314.159 155.561 314.303 155.705 314.45 155.845L352.81 194.226 30.4247 194.226C23.2795 194.226 17.4872 200.018 17.4872 207.164 17.4872 214.309 23.2795 220.101 30.4247 220.101Z" fill="#DC143C" transform="matrix(9.76168e-17 1.5942 -1 6.12323e-17 1881 708)"/></g></g></g><text font-family="Segoe UI,Segoe UI_MSFontService,sans-serif" font-weight="400" font-size="50" transform="matrix(1 0 0 1 1256.75 711)">Date</text><text font-family="Segoe UI,Segoe UI_MSFontService,sans-serif" font-weight="400" font-size="50" transform="matrix(-1.83697e-16 -1 1 -1.83697e-16 1641.29 1170)">Gender</text><text font-family="Segoe UI,Segoe UI_MSFontService,sans-serif" font-weight="400" font-size="50" transform="matrix(0.578202 -0.815894 0.815894 0.578202 1418.81 1090)">Age</text><text font-family="Segoe UI,Segoe UI_MSFontService,sans-serif" font-weight="400" font-size="50" transform="matrix(0.894065 -0.447936 0.447936 0.894065 1285.78 919)">Location</text></g></svg>